<svg width="82" height="45" viewBox="0 0 82 45" fill="none" xmlns="http://www.w3.org/2000/svg">
    <g clip-path="url(#clip0)">
        <g filter="url(#filter0_d)">
            <path d="M15.8065 11.7528C16.1159 11.5741 16.4971 11.5741 16.8065 11.7528L25.1129 16.5485C25.4223 16.7271 25.6129 17.0573 25.6129 17.4145V27.006C25.6129 27.3633 25.4223 27.6934 25.1129 27.872L16.8065 32.6678C16.4971 32.8464 16.1159 32.8464 15.8065 32.6678L7.5 27.872C7.1906 27.6934 7 27.3633 7 27.006V17.4145C7 17.0573 7.1906 16.7271 7.5 16.5485L15.8065 11.7528Z" stroke="url(#paint0_linear)" stroke-width="6"/>
        </g>
        <path d="M46.4669 35.308C45.1042 35.308 43.9655 35.0467 43.0509 34.524C42.1362 33.9827 41.4455 33.1987 40.9789 32.172C40.5122 31.1453 40.2509 29.8853 40.1949 28.392L43.7509 27.692C43.7882 28.5693 43.8909 29.344 44.0589 30.016C44.2455 30.688 44.5162 31.2107 44.8709 31.584C45.2442 31.9387 45.7295 32.116 46.3269 32.116C46.9989 32.116 47.4749 31.92 47.7549 31.528C48.0349 31.1173 48.1749 30.604 48.1749 29.988C48.1749 28.9987 47.9509 28.1867 47.5029 27.552C47.0549 26.9173 46.4575 26.2827 45.7109 25.648L42.8549 23.128C42.0522 22.4373 41.4082 21.672 40.9229 20.832C40.4562 19.9733 40.2229 18.9187 40.2229 17.668C40.2229 15.876 40.7455 14.4947 41.7909 13.524C42.8362 12.5533 44.2642 12.068 46.0749 12.068C47.1389 12.068 48.0255 12.236 48.7349 12.572C49.4442 12.8893 50.0042 13.3373 50.4149 13.916C50.8442 14.4947 51.1615 15.1573 51.3669 15.904C51.5722 16.632 51.7029 17.4067 51.7589 18.228L48.2309 18.844C48.1935 18.1347 48.1095 17.5 47.9789 16.94C47.8669 16.38 47.6522 15.9413 47.3349 15.624C47.0362 15.3067 46.5882 15.148 45.9909 15.148C45.3749 15.148 44.8989 15.3533 44.5629 15.764C44.2455 16.156 44.0869 16.6507 44.0869 17.248C44.0869 18.0133 44.2455 18.648 44.5629 19.152C44.8802 19.6373 45.3375 20.1413 45.9349 20.664L48.7629 23.156C49.6962 23.94 50.4895 24.864 51.1429 25.928C51.8149 26.9733 52.1509 28.2427 52.1509 29.736C52.1509 30.8187 51.9082 31.78 51.4229 32.62C50.9562 33.46 50.2935 34.1227 49.4349 34.608C48.5949 35.0747 47.6055 35.308 46.4669 35.308ZM54.3721 35V12.32H57.2561L62.7721 25.256V12.32H66.1881V35H63.4441L57.9001 21.448V35H54.3721ZM71.8979 35V15.372H68.2859V12.32H79.5979V15.372H76.0419V35H71.8979Z" fill="#303A62"/>
    </g>
    <defs>
        <filter id="filter0_d" x="-1" y="5.6188" width="34.613" height="37.183" filterUnits="userSpaceOnUse" color-interpolation-filters="sRGB">
            <feFlood flood-opacity="0" result="BackgroundImageFix"/>
            <feColorMatrix in="SourceAlpha" type="matrix" values="0 0 0 0 0 0 0 0 0 0 0 0 0 0 0 0 0 0 127 0" result="hardAlpha"/>
            <feOffset dy="2"/>
            <feGaussianBlur stdDeviation="2.5"/>
            <feColorMatrix type="matrix" values="0 0 0 0 0.239216 0 0 0 0 0.827451 0 0 0 0 0.607843 0 0 0 0.5 0"/>
            <feBlend mode="normal" in2="BackgroundImageFix" result="effect1_dropShadow"/>
            <feBlend mode="normal" in="SourceGraphic" in2="effect1_dropShadow" result="shape"/>
        </filter>
        <linearGradient id="paint0_linear" x1="23.6822" y1="8" x2="7.76893" y2="31.4511" gradientUnits="userSpaceOnUse">
            <stop stop-color="#9EE0C5"/>
            <stop offset="1" stop-color="#44D49E"/>
        </linearGradient>
        <clipPath id="clip0">
            <rect width="82" height="45" fill="white"/>
        </clipPath>
    </defs>
</svg>